<svg width="576" height="144" viewBox="0 0 576 144" fill="none" xmlns="http://www.w3.org/2000/svg">
<g clip-path="url(#clip0_167:2)">
<path d="M144 71.9991C144.04 82.9668 141.567 93.7978 136.772 103.66C131.977 113.523 124.987 122.155 116.338 128.894C107.689 135.633 97.6121 140.299 86.8804 142.534C76.1487 144.769 65.0478 144.514 54.4301 141.788V61.6133L79.9101 91.8901C81.6427 93.9508 83.9668 95.4285 86.5672 96.1229C89.1676 96.8172 91.9186 96.6946 94.447 95.7716C96.9754 94.8486 99.1589 93.1699 100.701 90.9631C102.244 88.7563 103.071 86.1283 103.07 83.4354V7.09322C115.318 12.946 125.661 22.1466 132.903 33.632C140.146 45.1173 143.993 58.4186 144 71.9991ZM64.0901 52.1181L89.5701 82.3948V2.21052C72.2648 -2.183 53.9449 0.0207405 38.1736 8.39312C22.4023 16.7655 10.3071 30.708 4.24059 47.5086C-1.82592 64.3093 -1.43005 82.7671 5.35121 99.2919C12.1325 115.817 24.8143 129.227 40.9301 136.915V60.5728C40.9292 57.8798 41.7561 55.2518 43.2987 53.045C44.8412 50.8383 47.0248 49.1596 49.5532 48.2365C52.0816 47.3135 54.8325 47.1909 57.433 47.8852C60.0334 48.5796 62.3575 50.0573 64.0901 52.1181Z" fill="url(#paint0_linear_167:2)"/>
<path d="M198.8 95.69C184.8 95.69 174.21 85.78 174.21 70.1C174.21 54.42 185.21 44.7 199.21 44.7C213.21 44.7 224.16 54.52 224.16 70.1C224.16 85.68 212.85 95.69 198.8 95.69ZM198.8 88.48C207.36 88.48 215.74 82.63 215.74 70.1C215.74 57.57 207.54 51.82 199.07 51.82C190.42 51.82 182.58 57.67 182.58 70.1C182.58 82.53 190.24 88.48 198.8 88.48Z" fill="#566074"/>
<path d="M270.31 66.95C270.31 56.86 264.82 51.73 256.53 51.73C248.24 51.73 242.39 56.95 242.39 67.58V94.88H234.19V45.51H242.39V52.51C245.63 47.37 251.58 44.58 258.24 44.58C269.68 44.58 278.42 51.58 278.42 65.75V94.85H270.31V66.95Z" fill="#566074"/>
<path d="M292.65 52.27H286.25V45.51H292.65V42C292.65 31 298.05 26 310.65 26V32.85C303.27 32.85 300.83 35.55 300.83 41.95V45.46H311.2V52.22H300.84V94.83H292.65V52.27Z" fill="#566074"/>
<path d="M318.68 31.91C318.698 30.8297 319.034 29.7785 319.645 28.8877C320.257 27.9969 321.117 27.306 322.119 26.9012C323.121 26.4964 324.219 26.3956 325.278 26.6115C326.337 26.8274 327.309 27.3503 328.072 28.115C328.835 28.8797 329.357 29.8523 329.57 30.9114C329.784 31.9705 329.682 33.0692 329.275 34.0703C328.869 35.0714 328.176 35.9305 327.284 36.5405C326.392 37.1504 325.341 37.4842 324.26 37.5C323.523 37.5122 322.791 37.3759 322.108 37.0992C321.425 36.8224 320.804 36.411 320.284 35.8893C319.763 35.3676 319.353 34.7465 319.077 34.0628C318.802 33.3791 318.667 32.647 318.68 31.91ZM320.03 45.51H328.22V94.88H320L320.03 45.51Z" fill="#566074"/>
<path d="M377.58 66.95C377.58 56.86 372.09 51.73 363.8 51.73C355.51 51.73 349.66 56.95 349.66 67.58V94.88H341.46V45.51H349.66V52.51C352.9 47.37 358.84 44.58 365.51 44.58C376.95 44.58 385.69 51.58 385.69 65.75V94.85H377.58V66.95Z" fill="#566074"/>
<path d="M418.74 44.7C427.93 44.7 434.23 49.39 437.12 54.52V45.52H445.41V94.89H437.12V85.7C434.12 91.01 427.75 95.7 418.65 95.7C405.5 95.7 395.32 85.34 395.32 70.02C395.32 54.7 405.5 44.7 418.74 44.7ZM420.37 51.82C411.37 51.82 403.7 58.39 403.7 70.01C403.7 81.63 411.35 88.48 420.37 88.48C429.39 88.48 437.12 81.72 437.12 70.1C437.12 58.66 429.37 51.82 420.37 51.82Z" fill="#566074"/>
<path d="M458.55 28.22H466.74V94.88H458.55V28.22Z" fill="#566074"/>
<path d="M478.63 31.91C478.648 30.8301 478.983 29.7794 479.594 28.8888C480.206 27.9983 481.065 27.3073 482.067 26.9023C483.068 26.4972 484.166 26.3959 485.225 26.6109C486.283 26.826 487.255 27.348 488.018 28.1117C488.782 28.8754 489.304 29.8471 489.519 30.9056C489.734 31.964 489.633 33.0623 489.228 34.0636C488.823 35.0648 488.132 35.9246 487.241 36.5357C486.351 37.1468 485.3 37.4822 484.22 37.5C483.483 37.5122 482.75 37.3759 482.067 37.0993C481.383 36.8227 480.762 36.4114 480.24 35.8899C479.719 35.3684 479.307 34.7473 479.031 34.0636C478.754 33.3799 478.618 32.6475 478.63 31.91ZM479.98 45.51H488.18V94.88H480L479.98 45.51Z" fill="#566074"/>
<path d="M503.22 52.27H496.82V45.51H503.22V33.08H511.42V45.51H524.3V52.27H511.42V81.36C511.42 86.23 513.22 87.94 518.26 87.94H524.26V94.88H516.87C508.13 94.88 503.18 91.27 503.18 81.36L503.22 52.27Z" fill="#566074"/>
<path d="M567.53 45.51H576L546.27 118.12H537.8L547.53 94.34L527.62 45.51H536.72L552.22 85.51L567.53 45.51Z" fill="#566074"/>
</g>
<defs>
<linearGradient id="paint0_linear_167:2" x1="30.7401" y1="130.952" x2="113.321" y2="13.0994" gradientUnits="userSpaceOnUse">
<stop stop-color="#031FEF"/>
<stop offset="0.13" stop-color="#0326EE"/>
<stop offset="0.24" stop-color="#032CED"/>
<stop offset="0.766097" stop-color="#0DE5C8"/>
<stop offset="0.876097" stop-color="#0CFACA"/>
<stop offset="0.97" stop-color="#0CFACA"/>
</linearGradient>
<clipPath id="clip0_167:2">
<rect width="576" height="144" fill="white"/>
</clipPath>
</defs>
</svg>
